name X:\Health\ResearchProjects\ASalo\Sprinting 2016\NHaralabidis\Running_implicit_muscleDriven\Running_implicit_muscleDriven\Study2\ExperimentalData\IK_Splined\twoSteps_IK_BSplines_100_meshInts_study2_p02_s_01_lowIK.mot
datacolumns 38
datarows 5
range 0.43300000 0.43768000
endheader
                time	         pelvis_tilt	         pelvis_list	     pelvis_rotation	           pelvis_tx	           pelvis_ty	           pelvis_tz	       hip_flexion_r	     hip_adduction_r	      hip_rotation_r	        knee_angle_r	       ankle_angle_r	    subtalar_angle_r	         mtp_angle_r	       hip_flexion_l	     hip_adduction_l	      hip_rotation_l	        knee_angle_l	       ankle_angle_l	    subtalar_angle_l	         mtp_angle_l	    lumbar_extension	      lumbar_bending	     lumbar_rotation	          arm_flex_r	           arm_add_r	           arm_rot_r	        elbow_flex_r	           pro_sup_r	        wrist_flex_r	         wrist_dev_r	          arm_flex_l	           arm_add_l	           arm_rot_l	        elbow_flex_l	           pro_sup_l	        wrist_flex_l	         wrist_dev_l	
          0.43300000	        -21.68483622	          0.83963890	        -10.76032355	         -0.87975650	          0.85406595	          0.33986863	         27.15523390	          2.44112409	         10.39969907	        -57.89536423	         19.27542289	        -16.35209098	         11.64766991	         50.66994326	         -3.91097529	        -14.99986106	       -109.35270486	         -7.00616617	        -14.42265872	         10.13294315	        -25.82645555	         -2.27740207	         -6.70334899	         29.11550984	          0.00217687	          9.07447575	         80.30364462	         72.06695599	         -5.38810191	         10.67100360	        -40.40676541	        -10.26848231	        -16.52791450	         36.57701421	         69.45432938	        -10.78130922	         18.82139485	
          0.43372564	        -21.64465399	          0.94035079	        -10.87495705	         -0.87658899	          0.85400087	          0.34008542	         26.85324812	          2.30015064	         10.47354914	        -57.71859364	         19.18939450	        -16.29836444	         11.80909974	         51.15765451	         -3.86566138	        -14.96207235	       -109.58026663	         -6.81024838	        -14.41324133	         10.15851329	        -25.79744664	         -2.48593713	         -6.72171986	         29.78444105	          0.24062461	          9.21880231	         80.52281457	         72.04464190	         -5.40833234	         10.67853432	        -41.00516292	        -10.18569619	        -16.62251329	         36.68104302	         69.75956603	        -10.71284638	         18.93477249	
          0.43601836	        -21.52094257	          1.26164550	        -11.23070908	         -0.86656989	          0.85378569	          0.34076061	         25.89965296	          1.84551323	         10.70154938	        -57.15252314	         18.91851955	        -16.12104009	         12.32241678	         52.70318347	         -3.71695598	        -14.83931133	       -110.28893631	         -6.19862528	        -14.39442841	         10.22554319	        -25.69876214	         -3.14540227	         -6.77437084	         31.88592560	          0.98429317	          9.66835425	         81.22804587	         71.97642511	         -5.47230345	         10.70195177	        -42.89652787	         -9.92546443	        -16.91584254	         37.02651083	         70.72635211	        -10.49478022	         19.28942270	
          0.43768000	        -21.45566780	          1.51767197	        -11.44016804	         -0.85922537	          0.85355797	          0.34117669	         25.21271839	          1.44680735	         10.82673318	        -56.68560354	         18.72925848	        -15.93569098	         12.71894989	         53.85753528	         -3.56765178	        -14.72508515	       -110.72496976	         -5.81088798	        -14.46294113	         10.17081090	        -25.57447767	         -3.62769645	         -6.77203842	         33.31838866	          1.45022365	          9.94565888	         81.83483075	         71.94415193	         -5.51905046	         10.71609670	        -44.27233780	         -9.74691189	        -17.08665802	         37.40285543	         71.44476438	        -10.32358849	         19.51960079	
          0.43768000	        -21.45566780	          1.51767197	        -11.44016804	         -0.85922537	          0.85355797	          0.34117669	         25.21271839	          1.44680735	         10.82673318	        -56.68560354	         18.72925848	        -15.93569098	         12.71894989	         53.85753528	         -3.56765178	        -14.72508515	       -110.72496976	         -5.81088798	        -14.46294113	         10.17081090	        -25.57447767	         -3.62769645	         -6.77203842	         33.31838866	          1.45022365	          9.94565888	         81.83483075	         71.94415193	         -5.51905046	         10.71609670	        -44.27233780	         -9.74691189	        -17.08665802	         37.40285543	         71.44476438	        -10.32358849	         19.51960079	
